# xmcd CD database file
#
# Track frame offsets:
#	150
#	21615
#	36990
#	54110
#	86290
#	109870
#	129070
#	152820
#	185410
#	207267
#	226727
#	249002
#	271025
#	286187
#
# Disc length: 4066 seconds
#
# Revision: 0
# Processed by: cddbd v1.5.2PL0 Copyright (c) Steve Scherf et al.
# Submitted via: CDex 1.51
#
DISCID=a90fe00e
DTITLE=Henryk Wozniacki - Contemporary Jazz
DYEAR=1992
DGENRE=Jazz
TTITLE0=Funky
TTITLE1=Maciek
TTITLE2=Samba Solidarity
TTITLE3=Symphony 1
TTITLE4=Funky 2
TTITLE5=Up to you
TTITLE6=Blues
TTITLE7=Samba Bimbo
TTITLE8=Nice day
TTITLE9=Plum Samba
TTITLE10=Hanna
TTITLE11=Pandora
TTITLE12=For Gabry
TTITLE13=Cognac
EXTD=YEAR: 1992
EXTT0=
EXTT1=
EXTT2=
EXTT3=
EXTT4=
EXTT5=
EXTT6=
EXTT7=
EXTT8=
EXTT9=
EXTT10=
EXTT11=
EXTT12=
EXTT13=
PLAYORDER=
